# Blender v3.1.2 OBJ File: 'untitled.blend'
# www.blender.org
mtllib Magic_board_3.mtl
o 실린더
v 0.000000 2.000000 -0.010000
v 0.000000 2.000000 0.010000
v 0.195090 1.980785 -0.010000
v 0.195090 1.980785 0.010000
v 0.382683 1.923880 -0.010000
v 0.382683 1.923880 0.010000
v 0.555570 1.831470 -0.010000
v 0.555570 1.831470 0.010000
v 0.707107 1.707107 -0.010000
v 0.707107 1.707107 0.010000
v 0.831470 1.555570 -0.010000
v 0.831470 1.555570 0.010000
v 0.923880 1.382683 -0.010000
v 0.923880 1.382683 0.010000
v 0.980785 1.195090 -0.010000
v 0.980785 1.195090 0.010000
v 1.000000 1.000000 -0.010000
v 1.000000 1.000000 0.010000
v 0.980785 0.804910 -0.010000
v 0.980785 0.804910 0.010000
v 0.923880 0.617317 -0.010000
v 0.923880 0.617317 0.010000
v 0.831470 0.444430 -0.010000
v 0.831470 0.444430 0.010000
v 0.707107 0.292893 -0.010000
v 0.707107 0.292893 0.010000
v 0.555570 0.168530 -0.010000
v 0.555570 0.168530 0.010000
v 0.382683 0.076120 -0.010000
v 0.382683 0.076120 0.010000
v 0.195090 0.019215 -0.010000
v 0.195090 0.019215 0.010000
v -0.000000 0.000000 -0.010000
v -0.000000 0.000000 0.010000
v -0.195090 0.019215 -0.010000
v -0.195090 0.019215 0.010000
v -0.382683 0.076120 -0.010000
v -0.382683 0.076120 0.010000
v -0.555570 0.168530 -0.010000
v -0.555570 0.168530 0.010000
v -0.707107 0.292893 -0.010000
v -0.707107 0.292893 0.010000
v -0.831469 0.444430 -0.010000
v -0.831469 0.444430 0.010000
v -0.923880 0.617316 -0.010000
v -0.923880 0.617316 0.010000
v -0.980785 0.804910 -0.010000
v -0.980785 0.804910 0.010000
v -1.000000 1.000000 -0.010000
v -1.000000 1.000000 0.010000
v -0.980785 1.195090 -0.010000
v -0.980785 1.195090 0.010000
v -0.923879 1.382684 -0.010000
v -0.923879 1.382684 0.010000
v -0.831470 1.555570 -0.010000
v -0.831470 1.555570 0.010000
v -0.707107 1.707107 -0.010000
v -0.707107 1.707107 0.010000
v -0.555570 1.831470 -0.010000
v -0.555570 1.831470 0.010000
v -0.382683 1.923880 -0.010000
v -0.382683 1.923880 0.010000
v -0.195090 1.980785 -0.010000
v -0.195090 1.980785 0.010000
v -0.551066 1.551065 0.010000
v -0.432969 1.647984 0.010000
v 0.000000 1.779324 0.010000
v -0.152039 1.764350 0.010000
v -0.298234 1.720002 0.010000
v -0.779324 1.000000 0.010000
v -0.764350 0.847961 0.010000
v -0.551065 0.448935 0.010000
v -0.647984 0.567031 0.010000
v -0.720002 0.701765 0.010000
v -0.000000 0.220676 0.010000
v 0.152039 0.235650 0.010000
v 0.432969 0.352016 0.010000
v 0.551065 0.448935 0.010000
v 0.298234 0.279998 0.010000
v 0.551065 1.551065 0.010000
v 0.647984 1.432969 0.010000
v 0.764350 1.152039 0.010000
v 0.779324 1.000000 0.010000
v 0.720002 1.298234 0.010000
v -0.764350 1.152039 0.010000
v -0.647984 1.432969 0.010000
v -0.720002 1.298235 0.010000
v -0.432969 0.352016 0.010000
v 0.152039 1.764350 0.010000
v 0.298234 1.720002 0.010000
v -0.152039 0.235650 0.010000
v -0.298234 0.279998 0.010000
v 0.432969 1.647984 0.010000
v 0.647984 0.567031 0.010000
v 0.720002 0.701766 0.010000
v 0.764350 0.847961 0.010000
v 0.152039 1.764350 -0.010000
v 0.298234 1.720002 -0.010000
v 0.551065 1.551065 -0.010000
v 0.647984 1.432969 -0.010000
v 0.432969 1.647984 -0.010000
v 0.432969 0.352016 -0.010000
v 0.551065 0.448935 -0.010000
v 0.720002 0.701766 -0.010000
v 0.764350 0.847961 -0.010000
v 0.647984 0.567031 -0.010000
v -0.647984 0.567031 -0.010000
v -0.551065 0.448935 -0.010000
v -0.152039 0.235650 -0.010000
v -0.298234 0.279998 -0.010000
v -0.432969 0.352016 -0.010000
v -0.720002 1.298235 -0.010000
v -0.764350 1.152039 -0.010000
v -0.432969 1.647984 -0.010000
v -0.551066 1.551065 -0.010000
v -0.647984 1.432969 -0.010000
v 0.000000 1.779324 -0.010000
v 0.298234 0.279998 -0.010000
v 0.720002 1.298234 -0.010000
v 0.779324 1.000000 -0.010000
v 0.764350 1.152039 -0.010000
v -0.779324 1.000000 -0.010000
v -0.764350 0.847961 -0.010000
v -0.720002 0.701765 -0.010000
v -0.298234 1.720002 -0.010000
v -0.152039 1.764350 -0.010000
v -0.000000 0.220676 -0.010000
v 0.152039 0.235650 -0.010000
vt 0.643057 0.437607
vt 0.677939 0.793485
vt 0.643057 0.793485
vt 0.250587 0.936434
vt 0.606465 0.901551
vt 0.606465 0.936434
vt 0.856624 0.793485
vt 0.821742 0.437607
vt 0.856624 0.437607
vt 0.893216 0.437607
vt 0.928098 0.793485
vt 0.893216 0.793485
vt 0.750268 0.437607
vt 0.785150 0.793485
vt 0.750268 0.793485
vt 0.465009 0.473345
vt 0.499892 0.829222
vt 0.465009 0.829222
vt 0.071902 0.437607
vt 0.106784 0.793485
vt 0.071902 0.793485
vt 0.393535 0.473345
vt 0.428417 0.829223
vt 0.393535 0.829223
vt 0.286324 0.473344
vt 0.321206 0.829222
vt 0.286324 0.829222
vt 0.143376 0.437607
vt 0.178258 0.793485
vt 0.143376 0.793485
vt 0.322061 0.473344
vt 0.356943 0.829222
vt 0.322061 0.829222
vt 0.678794 0.437607
vt 0.713676 0.793485
vt 0.678794 0.793485
vt 0.179113 0.473345
vt 0.213995 0.829223
vt 0.179113 0.829223
vt 0.786005 0.437607
vt 0.820887 0.793485
vt 0.786005 0.793485
vt 0.571583 0.437607
vt 0.606465 0.793486
vt 0.571583 0.793486
vt 0.357798 0.473345
vt 0.392680 0.829223
vt 0.357798 0.829223
vt 0.250587 0.972171
vt 0.606465 0.937289
vt 0.606465 0.972171
vt 0.535846 0.437607
vt 0.570728 0.793485
vt 0.535846 0.793486
vt 0.285469 0.829223
vt 0.250587 0.473344
vt 0.285469 0.473344
vt 0.964690 0.437607
vt 0.999573 0.793485
vt 0.964690 0.793485
vt 0.928953 0.437607
vt 0.963836 0.793485
vt 0.928953 0.793485
vt 0.607320 0.437607
vt 0.642202 0.793485
vt 0.607320 0.793485
vt 0.464154 0.829223
vt 0.429272 0.473345
vt 0.464154 0.473344
vt 0.250587 0.900697
vt 0.606465 0.865814
vt 0.606465 0.900697
vt 0.249732 0.829223
vt 0.214850 0.473344
vt 0.249732 0.473344
vt 0.250587 0.864960
vt 0.606465 0.830077
vt 0.606465 0.864960
vt 0.857479 0.437607
vt 0.892361 0.793485
vt 0.857479 0.793485
vt 0.107639 0.437607
vt 0.142521 0.793485
vt 0.107639 0.793485
vt 0.749413 0.793485
vt 0.714531 0.437607
vt 0.749413 0.437607
vt 0.179113 0.472490
vt 0.534991 0.437607
vt 0.534991 0.472490
vt 0.283539 0.039800
vt 0.279690 0.078878
vt 0.252506 0.078878
vt 0.306352 0.349583
vt 0.331468 0.339180
vt 0.349978 0.373811
vt 0.036165 0.437607
vt 0.071047 0.793485
vt 0.036164 0.793485
vt 0.000428 0.437607
vt 0.035310 0.793485
vt 0.000427 0.793485
vt 0.739020 0.034878
vt 0.742869 0.073956
vt 0.716206 0.079260
vt 0.773902 0.389043
vt 0.770053 0.349965
vt 0.796715 0.344662
vt 0.677939 0.600493
vt 0.643057 0.612629
vt 0.677939 0.612629
vt 0.413473 0.901551
vt 0.425608 0.936434
vt 0.425608 0.901551
vt 0.821742 0.630600
vt 0.856624 0.618464
vt 0.821742 0.618464
vt 0.928098 0.600493
vt 0.893216 0.612629
vt 0.928098 0.612629
vt 0.750268 0.600493
vt 0.785150 0.612629
vt 0.785150 0.600493
vt 0.465009 0.636230
vt 0.499891 0.648366
vt 0.499891 0.636230
vt 0.071902 0.600493
vt 0.106784 0.612629
vt 0.106784 0.600493
vt 0.393535 0.636230
vt 0.428417 0.648366
vt 0.428417 0.636230
vt 0.286324 0.636230
vt 0.321206 0.648366
vt 0.321206 0.636230
vt 0.143376 0.600493
vt 0.178258 0.612629
vt 0.178258 0.600493
vt 0.322061 0.636230
vt 0.356943 0.648366
vt 0.356943 0.636230
vt 0.678794 0.600493
vt 0.713676 0.612629
vt 0.713676 0.600493
vt 0.179113 0.636230
vt 0.213995 0.648366
vt 0.213995 0.636230
vt 0.786005 0.600493
vt 0.820887 0.612629
vt 0.820887 0.600493
vt 0.571583 0.600493
vt 0.606465 0.612629
vt 0.606465 0.600493
vt 0.357798 0.636230
vt 0.392680 0.648366
vt 0.392680 0.636230
vt 0.413473 0.972171
vt 0.425608 0.937289
vt 0.413473 0.937289
vt 0.535846 0.600493
vt 0.570728 0.612629
vt 0.570728 0.600493
vt 0.285469 0.666337
vt 0.250587 0.654201
vt 0.250587 0.666337
vt 0.964690 0.600493
vt 0.999573 0.612629
vt 0.999573 0.600493
vt 0.963836 0.600493
vt 0.928953 0.612629
vt 0.963835 0.612629
vt 0.642202 0.600493
vt 0.607320 0.612629
vt 0.642202 0.612629
vt 0.429272 0.666337
vt 0.464154 0.654201
vt 0.429272 0.654201
vt 0.413473 0.865814
vt 0.425608 0.900697
vt 0.425608 0.865814
vt 0.214850 0.666337
vt 0.249732 0.654201
vt 0.214850 0.654201
vt 0.413473 0.830077
vt 0.425608 0.864960
vt 0.425608 0.830077
vt 0.892361 0.600493
vt 0.857479 0.612629
vt 0.892361 0.612629
vt 0.142521 0.600493
vt 0.107639 0.612629
vt 0.142521 0.612629
vt 0.714531 0.630600
vt 0.749413 0.618464
vt 0.714531 0.618464
vt 0.341999 0.437607
vt 0.354134 0.472490
vt 0.354134 0.437607
vt 0.071047 0.600493
vt 0.036165 0.612629
vt 0.071047 0.612629
vt 0.035310 0.600493
vt 0.000427 0.612629
vt 0.035310 0.612629
vt 0.677939 0.437607
vt 0.250587 0.901551
vt 0.821742 0.793485
vt 0.928098 0.437607
vt 0.785150 0.437607
vt 0.499891 0.473344
vt 0.106784 0.437607
vt 0.428417 0.473344
vt 0.321206 0.473344
vt 0.178258 0.437607
vt 0.356943 0.473344
vt 0.713676 0.437607
vt 0.213995 0.473344
vt 0.820887 0.437607
vt 0.606465 0.437607
vt 0.392680 0.473344
vt 0.250587 0.937289
vt 0.570728 0.437607
vt 0.250587 0.829223
vt 0.999573 0.437607
vt 0.963836 0.437607
vt 0.642202 0.437607
vt 0.429272 0.829223
vt 0.250587 0.865814
vt 0.214850 0.829223
vt 0.250587 0.830077
vt 0.892361 0.437607
vt 0.142521 0.437607
vt 0.714531 0.793485
vt 0.179113 0.437607
vt 0.200728 0.094584
vt 0.182218 0.059954
vt 0.214444 0.046605
vt 0.248657 0.039800
vt 0.225843 0.084181
vt 0.317751 0.046605
vt 0.306352 0.084181
vt 0.331468 0.094584
vt 0.349978 0.059954
vt 0.378982 0.079333
vt 0.354071 0.109687
vt 0.403647 0.103999
vt 0.373293 0.128910
vt 0.423026 0.133002
vt 0.436375 0.165229
vt 0.398799 0.176628
vt 0.443180 0.199441
vt 0.404103 0.203290
vt 0.443180 0.234323
vt 0.436375 0.268535
vt 0.404103 0.230475
vt 0.423026 0.300762
vt 0.388396 0.282252
vt 0.403647 0.329766
vt 0.378981 0.354431
vt 0.373293 0.304855
vt 0.354071 0.324077
vt 0.317751 0.387160
vt 0.283539 0.393965
vt 0.279690 0.354887
vt 0.248657 0.393965
vt 0.214445 0.387160
vt 0.252506 0.354887
vt 0.182218 0.373811
vt 0.200728 0.339180
vt 0.153214 0.354431
vt 0.178125 0.324077
vt 0.128549 0.329766
vt 0.109170 0.300762
vt 0.158903 0.304855
vt 0.095821 0.268535
vt 0.133397 0.257137
vt 0.089016 0.234323
vt 0.128093 0.230475
vt 0.089016 0.199441
vt 0.128093 0.203290
vt 0.095821 0.165229
vt 0.109170 0.133002
vt 0.143800 0.151513
vt 0.128549 0.103999
vt 0.158903 0.128909
vt 0.153214 0.079333
vt 0.178125 0.109687
vt 0.388396 0.151513
vt 0.133397 0.176628
vt 0.143800 0.282252
vt 0.398799 0.257137
vt 0.225844 0.349583
vt 0.071047 0.437607
vt 0.035310 0.437607
vt 0.668488 0.104766
vt 0.649266 0.123988
vt 0.618912 0.099077
vt 0.643577 0.074412
vt 0.672581 0.055032
vt 0.691091 0.089663
vt 0.704808 0.041684
vt 0.773902 0.034878
vt 0.770053 0.073956
vt 0.808114 0.041683
vt 0.796715 0.079260
vt 0.840341 0.055032
vt 0.869344 0.074412
vt 0.821830 0.089663
vt 0.844434 0.104766
vt 0.863656 0.123988
vt 0.894010 0.099077
vt 0.913389 0.128081
vt 0.878759 0.146591
vt 0.926738 0.160308
vt 0.889162 0.171706
vt 0.933543 0.194520
vt 0.933543 0.229402
vt 0.894465 0.225553
vt 0.926738 0.263614
vt 0.889162 0.252215
vt 0.913389 0.295840
vt 0.894010 0.324844
vt 0.878759 0.277330
vt 0.869344 0.349510
vt 0.844433 0.319156
vt 0.840340 0.368889
vt 0.808113 0.382238
vt 0.821830 0.334259
vt 0.739019 0.389043
vt 0.742868 0.349965
vt 0.704807 0.382238
vt 0.716206 0.344662
vt 0.672580 0.368889
vt 0.643577 0.349510
vt 0.691091 0.334259
vt 0.618912 0.324844
vt 0.649266 0.299933
vt 0.599532 0.295841
vt 0.634163 0.277330
vt 0.586184 0.263614
vt 0.623759 0.252215
vt 0.579378 0.229402
vt 0.579378 0.194520
vt 0.618456 0.198368
vt 0.586183 0.160308
vt 0.623759 0.171706
vt 0.599532 0.128081
vt 0.634163 0.146591
vt 0.894465 0.198369
vt 0.618456 0.225553
vt 0.668488 0.319156
vt 0.863656 0.299933
vt 0.643057 0.600493
vt 0.413473 0.936434
vt 0.856624 0.630600
vt 0.893216 0.600493
vt 0.750268 0.612629
vt 0.465009 0.648366
vt 0.071902 0.612629
vt 0.393535 0.648366
vt 0.286324 0.648366
vt 0.143376 0.612629
vt 0.322061 0.648366
vt 0.678794 0.612629
vt 0.179113 0.648366
vt 0.786005 0.612629
vt 0.571583 0.612629
vt 0.357798 0.648366
vt 0.425608 0.972171
vt 0.535846 0.612629
vt 0.285469 0.654201
vt 0.964690 0.612629
vt 0.928953 0.600493
vt 0.607320 0.600493
vt 0.464154 0.666337
vt 0.413473 0.900697
vt 0.249732 0.666337
vt 0.413473 0.864960
vt 0.857479 0.600493
vt 0.107639 0.600493
vt 0.749413 0.630600
vt 0.341999 0.472490
vt 0.036165 0.600493
vt 0.000427 0.600493
vn 0.0980 0.9952 0.0000
vn 0.2903 0.9569 0.0000
vn 0.4714 0.8819 0.0000
vn 0.6344 0.7730 0.0000
vn 0.7730 0.6344 0.0000
vn 0.8819 0.4714 0.0000
vn 0.9569 0.2903 0.0000
vn 0.9952 0.0980 0.0000
vn 0.9952 -0.0980 0.0000
vn 0.9569 -0.2903 0.0000
vn 0.8819 -0.4714 0.0000
vn 0.7730 -0.6344 0.0000
vn 0.6344 -0.7730 0.0000
vn 0.4714 -0.8819 0.0000
vn 0.2903 -0.9569 0.0000
vn 0.0980 -0.9952 0.0000
vn -0.0980 -0.9952 0.0000
vn -0.2903 -0.9569 0.0000
vn -0.4714 -0.8819 0.0000
vn -0.6344 -0.7730 0.0000
vn -0.7730 -0.6344 0.0000
vn -0.8819 -0.4714 0.0000
vn -0.9569 -0.2903 0.0000
vn -0.9952 -0.0980 0.0000
vn -0.9952 0.0980 0.0000
vn -0.9569 0.2903 0.0000
vn -0.8819 0.4714 0.0000
vn -0.7730 0.6344 0.0000
vn -0.6344 0.7730 0.0000
vn -0.4714 0.8819 0.0000
vn 0.0000 -0.0000 1.0000
vn -0.2903 0.9569 0.0000
vn -0.0980 0.9952 0.0000
vn 0.0000 0.0000 -1.0000
usemtl 매테리얼
s off
f 2/1/1 3/2/1 1/3/1
f 4/4/2 5/5/2 3/6/2
f 6/7/3 7/8/3 5/9/3
f 8/10/4 9/11/4 7/12/4
f 10/13/5 11/14/5 9/15/5
f 12/16/6 13/17/6 11/18/6
f 14/19/7 15/20/7 13/21/7
f 16/22/8 17/23/8 15/24/8
f 18/25/9 19/26/9 17/27/9
f 20/28/10 21/29/10 19/30/10
f 22/31/11 23/32/11 21/33/11
f 24/34/12 25/35/12 23/36/12
f 26/37/13 27/38/13 25/39/13
f 28/40/14 29/41/14 27/42/14
f 30/43/15 31/44/15 29/45/15
f 32/46/16 33/47/16 31/48/16
f 34/49/17 35/50/17 33/51/17
f 36/52/18 37/53/18 35/54/18
f 38/55/19 39/56/19 37/57/19
f 40/58/20 41/59/20 39/60/20
f 42/61/21 43/62/21 41/63/21
f 44/64/22 45/65/22 43/66/22
f 46/67/23 47/68/23 45/69/23
f 48/70/24 49/71/24 47/72/24
f 50/73/25 51/74/25 49/75/25
f 52/76/26 53/77/26 51/78/26
f 54/79/27 55/80/27 53/81/27
f 56/82/28 57/83/28 55/84/28
f 58/85/29 59/86/29 57/87/29
f 60/88/30 61/89/30 59/90/30
f 24/91/31 94/92/31 78/93/31
f 66/94/31 69/95/31 62/96/31
f 62/97/32 63/98/32 61/99/32
f 64/100/33 1/101/33 63/102/33
f 47/103/34 123/104/34 124/105/34
f 15/106/34 121/107/34 119/108/34
f 89/109/17 117/110/17 97/111/17
f 90/112/18 97/113/18 98/114/18
f 93/115/19 98/116/19 101/117/19
f 80/118/20 101/119/20 99/120/20
f 80/121/21 100/122/21 81/123/21
f 81/124/22 119/125/22 84/126/22
f 84/127/23 121/128/23 82/129/23
f 82/130/24 120/131/24 83/132/24
f 83/133/25 105/134/25 96/135/25
f 96/136/26 104/137/26 95/138/26
f 95/139/27 106/140/27 94/141/27
f 94/142/28 103/143/28 78/144/28
f 78/145/29 102/146/29 77/147/29
f 77/148/30 118/149/30 79/150/30
f 79/151/32 128/152/32 76/153/32
f 76/154/33 127/155/33 75/156/33
f 75/157/1 109/158/1 91/159/1
f 91/160/2 110/161/2 92/162/2
f 92/163/3 111/164/3 88/165/3
f 88/166/4 108/167/4 72/168/4
f 73/169/5 108/170/5 107/171/5
f 74/172/6 107/173/6 124/174/6
f 71/175/7 124/176/7 123/177/7
f 70/178/8 123/179/8 122/180/8
f 85/181/9 122/182/9 113/183/9
f 87/184/10 113/185/10 112/186/10
f 86/187/11 112/188/11 116/189/11
f 65/190/12 116/191/12 115/192/12
f 66/193/13 115/194/13 114/195/13
f 69/196/14 114/197/14 125/198/14
f 68/199/15 125/200/15 126/201/15
f 67/202/16 126/203/16 117/204/16
f 2/1/1 4/205/1 3/2/1
f 4/4/2 6/206/2 5/5/2
f 6/7/3 8/207/3 7/8/3
f 8/10/4 10/208/4 9/11/4
f 10/13/5 12/209/5 11/14/5
f 12/16/6 14/210/6 13/17/6
f 14/19/7 16/211/7 15/20/7
f 16/22/8 18/212/8 17/23/8
f 18/25/9 20/213/9 19/26/9
f 20/28/10 22/214/10 21/29/10
f 22/31/11 24/215/11 23/32/11
f 24/34/12 26/216/12 25/35/12
f 26/37/13 28/217/13 27/38/13
f 28/40/14 30/218/14 29/41/14
f 30/43/15 32/219/15 31/44/15
f 32/46/16 34/220/16 33/47/16
f 34/49/17 36/221/17 35/50/17
f 36/52/18 38/222/18 37/53/18
f 38/55/19 40/223/19 39/56/19
f 40/58/20 42/224/20 41/59/20
f 42/61/21 44/225/21 43/62/21
f 44/64/22 46/226/22 45/65/22
f 46/67/23 48/227/23 47/68/23
f 48/70/24 50/228/24 49/71/24
f 50/73/25 52/229/25 51/74/25
f 52/76/26 54/230/26 53/77/26
f 54/79/27 56/231/27 55/80/27
f 56/82/28 58/232/28 57/83/28
f 58/85/29 60/233/29 59/86/29
f 60/88/30 62/234/30 61/89/30
f 79/235/31 30/236/31 28/237/31
f 28/237/31 26/238/31 77/239/31
f 26/238/31 24/91/31 78/93/31
f 77/239/31 26/238/31 78/93/31
f 24/91/31 22/240/31 94/92/31
f 22/240/31 95/241/31 94/92/31
f 79/235/31 28/237/31 77/239/31
f 96/242/31 95/241/31 22/240/31
f 22/240/31 20/243/31 96/242/31
f 20/243/31 18/244/31 83/245/31
f 18/244/31 16/246/31 82/247/31
f 16/246/31 14/248/31 82/247/31
f 14/248/31 12/249/31 81/250/31
f 12/249/31 10/251/31 80/252/31
f 10/251/31 8/253/31 80/252/31
f 8/253/31 6/254/31 93/255/31
f 80/252/31 8/253/31 93/255/31
f 6/254/31 4/256/31 89/257/31
f 4/256/31 2/258/31 89/257/31
f 2/258/31 64/259/31 67/260/31
f 64/259/31 62/96/31 68/261/31
f 67/260/31 64/259/31 68/261/31
f 62/96/31 60/262/31 66/94/31
f 60/262/31 58/263/31 65/264/31
f 58/263/31 56/265/31 65/264/31
f 56/265/31 54/266/31 86/267/31
f 65/264/31 56/265/31 86/267/31
f 54/266/31 52/268/31 85/269/31
f 52/268/31 50/270/31 70/271/31
f 50/270/31 48/272/31 70/271/31
f 48/272/31 46/273/31 71/274/31
f 70/271/31 48/272/31 71/274/31
f 46/273/31 44/275/31 73/276/31
f 44/275/31 42/277/31 72/278/31
f 42/277/31 40/279/31 88/280/31
f 40/279/31 38/281/31 88/280/31
f 38/281/31 36/282/31 91/283/31
f 36/282/31 34/284/31 75/285/31
f 34/284/31 32/286/31 75/285/31
f 32/286/31 30/236/31 76/287/31
f 75/285/31 32/286/31 76/287/31
f 30/236/31 79/235/31 76/287/31
f 36/282/31 75/285/31 91/283/31
f 44/275/31 72/278/31 73/276/31
f 52/268/31 70/271/31 85/269/31
f 60/262/31 65/264/31 66/94/31
f 89/257/31 2/258/31 67/260/31
f 12/249/31 80/252/31 81/250/31
f 20/243/31 83/245/31 96/242/31
f 82/247/31 83/245/31 18/244/31
f 84/288/31 82/247/31 14/248/31
f 38/281/31 91/283/31 92/289/31
f 38/281/31 92/289/31 88/280/31
f 81/250/31 84/288/31 14/248/31
f 42/277/31 88/280/31 72/278/31
f 46/273/31 73/276/31 74/290/31
f 90/291/31 93/255/31 6/254/31
f 89/257/31 90/291/31 6/254/31
f 46/273/31 74/290/31 71/274/31
f 69/95/31 68/261/31 62/96/31
f 54/266/31 85/269/31 87/292/31
f 54/266/31 87/292/31 86/267/31
f 62/97/32 64/293/32 63/98/32
f 64/100/33 2/294/33 1/101/33
f 108/295/34 111/296/34 39/297/34
f 39/297/34 41/298/34 108/295/34
f 41/298/34 43/299/34 107/300/34
f 43/299/34 45/301/34 124/105/34
f 45/301/34 47/103/34 124/105/34
f 47/103/34 49/302/34 122/303/34
f 49/302/34 51/304/34 113/305/34
f 51/304/34 53/306/34 113/305/34
f 53/306/34 55/307/34 112/308/34
f 113/305/34 53/306/34 112/308/34
f 55/307/34 116/309/34 112/308/34
f 49/302/34 113/305/34 122/303/34
f 41/298/34 107/300/34 108/295/34
f 124/105/34 107/300/34 43/299/34
f 47/103/34 122/303/34 123/104/34
f 115/310/34 116/309/34 55/307/34
f 55/307/34 57/311/34 115/310/34
f 57/311/34 59/312/34 114/313/34
f 59/312/34 61/314/34 125/315/34
f 61/314/34 63/316/34 125/315/34
f 63/316/34 1/317/34 117/318/34
f 1/317/34 3/319/34 97/320/34
f 3/319/34 5/321/34 97/320/34
f 5/321/34 7/322/34 98/323/34
f 97/320/34 5/321/34 98/323/34
f 7/322/34 9/324/34 99/325/34
f 9/324/34 11/326/34 99/325/34
f 11/326/34 13/327/34 100/328/34
f 13/327/34 15/106/34 119/108/34
f 100/328/34 13/327/34 119/108/34
f 15/106/34 17/329/34 120/330/34
f 17/329/34 19/331/34 105/332/34
f 19/331/34 21/333/34 105/332/34
f 21/333/34 23/334/34 104/335/34
f 105/332/34 21/333/34 104/335/34
f 23/334/34 25/336/34 103/337/34
f 25/336/34 27/338/34 102/339/34
f 27/338/34 29/340/34 118/341/34
f 29/340/34 31/342/34 118/341/34
f 31/342/34 33/343/34 127/344/34
f 33/343/34 35/345/34 109/346/34
f 35/345/34 37/347/34 109/346/34
f 37/347/34 39/297/34 110/348/34
f 109/346/34 37/347/34 110/348/34
f 39/297/34 111/296/34 110/348/34
f 33/343/34 109/346/34 127/344/34
f 25/336/34 102/339/34 103/337/34
f 17/329/34 105/332/34 120/330/34
f 99/325/34 11/326/34 100/328/34
f 1/317/34 97/320/34 117/318/34
f 57/311/34 114/313/34 115/310/34
f 125/315/34 114/313/34 59/312/34
f 126/349/34 125/315/34 63/316/34
f 31/342/34 127/344/34 128/350/34
f 31/342/34 128/350/34 118/341/34
f 117/318/34 126/349/34 63/316/34
f 27/338/34 118/341/34 102/339/34
f 23/334/34 103/337/34 106/351/34
f 101/352/34 98/323/34 7/322/34
f 99/325/34 101/352/34 7/322/34
f 23/334/34 106/351/34 104/335/34
f 15/106/34 120/330/34 121/107/34
f 89/109/17 67/353/17 117/110/17
f 90/112/18 89/354/18 97/113/18
f 93/115/19 90/355/19 98/116/19
f 80/118/20 93/356/20 101/119/20
f 80/121/21 99/357/21 100/122/21
f 81/124/22 100/358/22 119/125/22
f 84/127/23 119/359/23 121/128/23
f 82/130/24 121/360/24 120/131/24
f 83/133/25 120/361/25 105/134/25
f 96/136/26 105/362/26 104/137/26
f 95/139/27 104/363/27 106/140/27
f 94/142/28 106/364/28 103/143/28
f 78/145/29 103/365/29 102/146/29
f 77/148/30 102/366/30 118/149/30
f 79/151/32 118/367/32 128/152/32
f 76/154/33 128/368/33 127/155/33
f 75/157/1 127/369/1 109/158/1
f 91/160/2 109/370/2 110/161/2
f 92/163/3 110/371/3 111/164/3
f 88/166/4 111/372/4 108/167/4
f 73/169/5 72/373/5 108/170/5
f 74/172/6 73/374/6 107/173/6
f 71/175/7 74/375/7 124/176/7
f 70/178/8 71/376/8 123/179/8
f 85/181/9 70/377/9 122/182/9
f 87/184/10 85/378/10 113/185/10
f 86/187/11 87/379/11 112/188/11
f 65/190/12 86/380/12 116/191/12
f 66/193/13 65/381/13 115/194/13
f 69/196/14 66/382/14 114/197/14
f 68/199/15 69/383/15 125/200/15
f 67/202/16 68/384/16 126/203/16
